<svg width="25" height="26" viewBox="0 0 25 26" fill="none" xmlns="http://www.w3.org/2000/svg">
<g clip-path="url(#clip0_72_10832)">
<path d="M8.05473 16.6623H8.05587C8.05683 16.6623 8.05778 16.6621 8.05873 16.6621H21.3379C21.6648 16.6621 21.9522 16.4452 22.0421 16.1309L24.9718 5.877C25.0349 5.65594 24.9906 5.41829 24.8524 5.2348C24.7139 5.05131 24.4974 4.94336 24.2676 4.94336H6.36558L5.84201 2.58721C5.76744 2.25209 5.47027 2.01367 5.12695 2.01367H0.732421C0.327873 2.01367 0 2.34154 0 2.74609C0 3.15064 0.327873 3.47851 0.732421 3.47851H4.53949C4.63218 3.89603 7.04498 14.7538 7.18383 15.3785C6.40545 15.7168 5.85937 16.4929 5.85937 17.3945C5.85937 18.6061 6.84509 19.5918 8.05664 19.5918H21.3379C21.7424 19.5918 22.0703 19.2639 22.0703 18.8594C22.0703 18.4548 21.7424 18.1269 21.3379 18.1269H8.05664C7.65285 18.1269 7.32421 17.7983 7.32421 17.3945C7.32421 16.9913 7.65171 16.6632 8.05473 16.6623ZM23.2965 6.4082L20.7853 15.1973H8.6441L6.69098 6.4082H23.2965Z" fill="black"/>
<path d="M7.32422 21.7891C7.32422 23.0006 8.30994 23.9863 9.52148 23.9863C10.733 23.9863 11.7187 23.0006 11.7187 21.7891C11.7187 20.5775 10.733 19.5918 9.52148 19.5918C8.30994 19.5918 7.32422 20.5775 7.32422 21.7891ZM9.52148 21.0566C9.92527 21.0566 10.2539 21.3853 10.2539 21.7891C10.2539 22.1928 9.92527 22.5215 9.52148 22.5215C9.1177 22.5215 8.78906 22.1928 8.78906 21.7891C8.78906 21.3853 9.1177 21.0566 9.52148 21.0566Z" fill="black"/>
<path d="M17.6758 21.7891C17.6758 23.0006 18.6615 23.9863 19.873 23.9863C21.0846 23.9863 22.0703 23.0006 22.0703 21.7891C22.0703 20.5775 21.0846 19.5918 19.873 19.5918C18.6615 19.5918 17.6758 20.5775 17.6758 21.7891ZM19.873 21.0566C20.2768 21.0566 20.6055 21.3853 20.6055 21.7891C20.6055 22.1928 20.2768 22.5215 19.873 22.5215C19.4693 22.5215 19.1406 22.1928 19.1406 21.7891C19.1406 21.3853 19.4693 21.0566 19.873 21.0566Z" fill="black"/>
</g>
<defs>
<clipPath id="clip0_72_10832">
<rect width="25" height="25" fill="white" transform="translate(0 0.5)"/>
</clipPath>
</defs>
</svg>
